G04 EAGLE Gerber RS-274X export*
G75*
%MOMM*%
%FSLAX34Y34*%
%LPD*%
%INSilkscreen Bottom*%
%IPPOS*%
%AMOC8*
5,1,8,0,0,1.08239X$1,22.5*%
G01*
%ADD10C,0.076200*%
%ADD11C,0.203200*%
%ADD12C,0.050800*%
%ADD13C,0.152400*%


D10*
X197253Y15798D02*
X204625Y15798D01*
X202168Y18256D01*
X204625Y20713D01*
X197253Y20713D01*
X204625Y26969D02*
X203397Y28197D01*
X204625Y26969D02*
X204625Y24511D01*
X203397Y23282D01*
X198482Y23282D01*
X197253Y24511D01*
X197253Y26969D01*
X198482Y28197D01*
X198482Y30767D02*
X204625Y30767D01*
X198482Y30767D02*
X197253Y31995D01*
X197253Y34453D01*
X198482Y35681D01*
X204625Y35681D01*
X204625Y45735D02*
X197253Y45735D01*
X204625Y45735D02*
X204625Y49421D01*
X203397Y50650D01*
X200939Y50650D01*
X199710Y49421D01*
X199710Y45735D01*
X197253Y53219D02*
X202168Y53219D01*
X202168Y55676D02*
X199710Y53219D01*
X202168Y55676D02*
X202168Y56905D01*
X197253Y60684D02*
X197253Y63142D01*
X198482Y64371D01*
X200939Y64371D01*
X202168Y63142D01*
X202168Y60684D01*
X200939Y59456D01*
X198482Y59456D01*
X197253Y60684D01*
X194796Y69397D02*
X194796Y70626D01*
X196024Y71855D01*
X202168Y71855D01*
X202168Y68169D01*
X200939Y66940D01*
X198482Y66940D01*
X197253Y68169D01*
X197253Y71855D01*
X197253Y74424D02*
X202168Y74424D01*
X199710Y74424D02*
X202168Y76882D01*
X202168Y78110D01*
X202168Y81890D02*
X202168Y84347D01*
X200939Y85576D01*
X197253Y85576D01*
X197253Y81890D01*
X198482Y80661D01*
X199710Y81890D01*
X199710Y85576D01*
X197253Y88145D02*
X202168Y88145D01*
X202168Y89374D01*
X200939Y90602D01*
X197253Y90602D01*
X200939Y90602D02*
X202168Y91831D01*
X200939Y93060D01*
X197253Y93060D01*
X197253Y95629D02*
X202168Y95629D01*
X202168Y96858D01*
X200939Y98087D01*
X197253Y98087D01*
X200939Y98087D02*
X202168Y99315D01*
X200939Y100544D01*
X197253Y100544D01*
X202168Y103113D02*
X202168Y104342D01*
X197253Y104342D01*
X197253Y103113D02*
X197253Y105571D01*
X204625Y104342D02*
X205854Y104342D01*
X202168Y108103D02*
X197253Y108103D01*
X202168Y108103D02*
X202168Y111789D01*
X200939Y113018D01*
X197253Y113018D01*
X194796Y118044D02*
X194796Y119273D01*
X196024Y120502D01*
X202168Y120502D01*
X202168Y116816D01*
X200939Y115587D01*
X198482Y115587D01*
X197253Y116816D01*
X197253Y120502D01*
X197253Y130555D02*
X202168Y130555D01*
X204625Y133013D01*
X202168Y135470D01*
X197253Y135470D01*
X200939Y135470D02*
X200939Y130555D01*
X204625Y142954D02*
X197253Y142954D01*
X197253Y139268D01*
X198482Y138039D01*
X200939Y138039D01*
X202168Y139268D01*
X202168Y142954D01*
X202168Y146752D02*
X202168Y149210D01*
X200939Y150438D01*
X197253Y150438D01*
X197253Y146752D01*
X198482Y145524D01*
X199710Y146752D01*
X199710Y150438D01*
X202168Y153008D02*
X194796Y153008D01*
X202168Y153008D02*
X202168Y156694D01*
X200939Y157923D01*
X198482Y157923D01*
X197253Y156694D01*
X197253Y153008D01*
X198482Y161721D02*
X203397Y161721D01*
X198482Y161721D02*
X197253Y162949D01*
X202168Y162949D02*
X202168Y160492D01*
X197253Y166710D02*
X197253Y169167D01*
X197253Y166710D02*
X198482Y165481D01*
X200939Y165481D01*
X202168Y166710D01*
X202168Y169167D01*
X200939Y170396D01*
X199710Y170396D01*
X199710Y165481D01*
X197253Y172965D02*
X202168Y172965D01*
X199710Y172965D02*
X202168Y175423D01*
X202168Y176652D01*
X202168Y186686D02*
X197253Y189144D01*
X202168Y191601D01*
X202168Y194171D02*
X204625Y196628D01*
X197253Y196628D01*
X197253Y194171D02*
X197253Y199085D01*
X197253Y201655D02*
X198482Y201655D01*
X198482Y202883D01*
X197253Y202883D01*
X197253Y201655D01*
X198482Y205397D02*
X203397Y205397D01*
X204625Y206625D01*
X204625Y209083D01*
X203397Y210312D01*
X198482Y210312D01*
X197253Y209083D01*
X197253Y206625D01*
X198482Y205397D01*
X203397Y210312D01*
X117704Y43652D02*
X117704Y37381D01*
X120839Y40516D02*
X114569Y40516D01*
X122407Y46736D02*
X122407Y53007D01*
X122407Y46736D02*
X117704Y46736D01*
X119272Y49872D01*
X119272Y51439D01*
X117704Y53007D01*
X114569Y53007D01*
X113001Y51439D01*
X113001Y48304D01*
X114569Y46736D01*
X116136Y56091D02*
X122407Y56091D01*
X116136Y56091D02*
X113001Y59227D01*
X116136Y62362D01*
X122407Y62362D01*
X138401Y37381D02*
X147807Y37381D01*
X138401Y43652D01*
X147807Y43652D01*
X147807Y51439D02*
X146239Y53007D01*
X147807Y51439D02*
X147807Y48304D01*
X146239Y46736D01*
X139969Y46736D01*
X138401Y48304D01*
X138401Y51439D01*
X139969Y53007D01*
X171639Y43652D02*
X173207Y42084D01*
X173207Y38949D01*
X171639Y37381D01*
X165369Y37381D01*
X163801Y38949D01*
X163801Y42084D01*
X165369Y43652D01*
X168504Y43652D01*
X168504Y40516D01*
X163801Y46736D02*
X173207Y46736D01*
X163801Y53007D01*
X173207Y53007D01*
X173207Y56091D02*
X163801Y56091D01*
X163801Y60794D01*
X165369Y62362D01*
X171639Y62362D01*
X173207Y60794D01*
X173207Y56091D01*
X97007Y37381D02*
X87601Y37381D01*
X97007Y37381D02*
X97007Y42084D01*
X95439Y43652D01*
X92304Y43652D01*
X90736Y42084D01*
X90736Y37381D01*
X90736Y40516D02*
X87601Y43652D01*
X87601Y53007D02*
X97007Y46736D01*
X97007Y53007D02*
X87601Y46736D01*
X71607Y40516D02*
X62201Y40516D01*
X71607Y37381D02*
X71607Y43652D01*
X71607Y46736D02*
X62201Y53007D01*
X62201Y46736D02*
X71607Y53007D01*
X46207Y37381D02*
X36801Y37381D01*
X36801Y42084D01*
X38369Y43652D01*
X44639Y43652D01*
X46207Y42084D01*
X46207Y37381D01*
X46207Y49872D02*
X36801Y49872D01*
X46207Y53007D02*
X46207Y46736D01*
X46207Y56091D02*
X36801Y56091D01*
X46207Y56091D02*
X46207Y60794D01*
X44639Y62362D01*
X41504Y62362D01*
X39936Y60794D01*
X39936Y56091D01*
X39936Y59227D02*
X36801Y62362D01*
D11*
X21500Y249000D02*
X15500Y249000D01*
X15500Y257000D01*
X37500Y249000D02*
X43500Y249000D01*
X43500Y257000D01*
D12*
X12033Y250141D02*
X8304Y250141D01*
X12033Y250141D02*
X12965Y251073D01*
X12965Y252937D01*
X12033Y253869D01*
X8304Y253869D01*
X7372Y252937D01*
X7372Y251073D01*
X8304Y250141D01*
X9236Y252005D02*
X7372Y253869D01*
X7372Y258550D02*
X12965Y258550D01*
X10168Y255754D01*
X10168Y259483D01*
X34859Y297608D02*
X34859Y303201D01*
X32063Y303201D01*
X31131Y302269D01*
X31131Y300404D01*
X32063Y299472D01*
X34859Y299472D01*
X32995Y299472D02*
X31131Y297608D01*
X29246Y303201D02*
X25518Y303201D01*
X25518Y302269D01*
X29246Y298540D01*
X29246Y297608D01*
X135359Y167701D02*
X135359Y162108D01*
X135359Y167701D02*
X132563Y167701D01*
X131631Y166769D01*
X131631Y164904D01*
X132563Y163972D01*
X135359Y163972D01*
X133495Y163972D02*
X131631Y162108D01*
X129746Y166769D02*
X128814Y167701D01*
X126950Y167701D01*
X126018Y166769D01*
X126018Y165837D01*
X126950Y164904D01*
X126018Y163972D01*
X126018Y163040D01*
X126950Y162108D01*
X128814Y162108D01*
X129746Y163040D01*
X129746Y163972D01*
X128814Y164904D01*
X129746Y165837D01*
X129746Y166769D01*
X128814Y164904D02*
X126950Y164904D01*
D11*
X135500Y249000D02*
X141500Y249000D01*
X135500Y249000D02*
X135500Y257000D01*
X157500Y249000D02*
X163500Y249000D01*
X163500Y257000D01*
D12*
X166972Y250141D02*
X170701Y250141D01*
X171633Y251073D01*
X171633Y252937D01*
X170701Y253869D01*
X166972Y253869D01*
X166040Y252937D01*
X166040Y251073D01*
X166972Y250141D01*
X167904Y252005D02*
X166040Y253869D01*
X170701Y255754D02*
X171633Y256686D01*
X171633Y258550D01*
X170701Y259483D01*
X169769Y259483D01*
X168836Y258550D01*
X168836Y257618D01*
X168836Y258550D02*
X167904Y259483D01*
X166972Y259483D01*
X166040Y258550D01*
X166040Y256686D01*
X166972Y255754D01*
X154859Y297608D02*
X154859Y303201D01*
X152063Y303201D01*
X151131Y302269D01*
X151131Y300404D01*
X152063Y299472D01*
X154859Y299472D01*
X152995Y299472D02*
X151131Y297608D01*
X147382Y302269D02*
X145518Y303201D01*
X147382Y302269D02*
X149246Y300404D01*
X149246Y298540D01*
X148314Y297608D01*
X146450Y297608D01*
X145518Y298540D01*
X145518Y299472D01*
X146450Y300404D01*
X149246Y300404D01*
X170359Y167701D02*
X170359Y162108D01*
X170359Y167701D02*
X167563Y167701D01*
X166631Y166769D01*
X166631Y164904D01*
X167563Y163972D01*
X170359Y163972D01*
X168495Y163972D02*
X166631Y162108D01*
X164746Y167701D02*
X161018Y167701D01*
X164746Y167701D02*
X164746Y164904D01*
X162882Y165837D01*
X161950Y165837D01*
X161018Y164904D01*
X161018Y163040D01*
X161950Y162108D01*
X163814Y162108D01*
X164746Y163040D01*
D11*
X101500Y249000D02*
X95500Y249000D01*
X95500Y257000D01*
X117500Y249000D02*
X123500Y249000D01*
X123500Y257000D01*
D12*
X92033Y250141D02*
X88304Y250141D01*
X92033Y250141D02*
X92965Y251073D01*
X92965Y252937D01*
X92033Y253869D01*
X88304Y253869D01*
X87372Y252937D01*
X87372Y251073D01*
X88304Y250141D01*
X89236Y252005D02*
X87372Y253869D01*
X87372Y255754D02*
X87372Y259483D01*
X87372Y255754D02*
X91101Y259483D01*
X92033Y259483D01*
X92965Y258550D01*
X92965Y256686D01*
X92033Y255754D01*
X114859Y297608D02*
X114859Y303201D01*
X112063Y303201D01*
X111131Y302269D01*
X111131Y300404D01*
X112063Y299472D01*
X114859Y299472D01*
X112995Y299472D02*
X111131Y297608D01*
X106450Y297608D02*
X106450Y303201D01*
X109246Y300404D01*
X105518Y300404D01*
X100359Y167701D02*
X100359Y162108D01*
X100359Y167701D02*
X97563Y167701D01*
X96631Y166769D01*
X96631Y164904D01*
X97563Y163972D01*
X100359Y163972D01*
X98495Y163972D02*
X96631Y162108D01*
X94746Y166769D02*
X93814Y167701D01*
X91950Y167701D01*
X91018Y166769D01*
X91018Y165837D01*
X91950Y164904D01*
X92882Y164904D01*
X91950Y164904D02*
X91018Y163972D01*
X91018Y163040D01*
X91950Y162108D01*
X93814Y162108D01*
X94746Y163040D01*
D11*
X61500Y249000D02*
X55500Y249000D01*
X55500Y257000D01*
X77500Y249000D02*
X83500Y249000D01*
X83500Y257000D01*
D12*
X52033Y250141D02*
X48304Y250141D01*
X52033Y250141D02*
X52965Y251073D01*
X52965Y252937D01*
X52033Y253869D01*
X48304Y253869D01*
X47372Y252937D01*
X47372Y251073D01*
X48304Y250141D01*
X49236Y252005D02*
X47372Y253869D01*
X51101Y255754D02*
X52965Y257618D01*
X47372Y257618D01*
X47372Y255754D02*
X47372Y259483D01*
X74859Y297608D02*
X74859Y303201D01*
X72063Y303201D01*
X71131Y302269D01*
X71131Y300404D01*
X72063Y299472D01*
X74859Y299472D01*
X72995Y299472D02*
X71131Y297608D01*
X69246Y301337D02*
X67382Y303201D01*
X67382Y297608D01*
X69246Y297608D02*
X65518Y297608D01*
X64859Y167701D02*
X64859Y162108D01*
X64859Y167701D02*
X62063Y167701D01*
X61131Y166769D01*
X61131Y164904D01*
X62063Y163972D01*
X64859Y163972D01*
X62995Y163972D02*
X61131Y162108D01*
X59246Y162108D02*
X55518Y162108D01*
X59246Y162108D02*
X55518Y165837D01*
X55518Y166769D01*
X56450Y167701D01*
X58314Y167701D01*
X59246Y166769D01*
D13*
X94190Y234740D02*
X128790Y234740D01*
X128790Y172260D02*
X94190Y172260D01*
X94190Y234740D01*
X128790Y234740D02*
X128790Y172260D01*
D10*
X59253Y193902D02*
X59253Y196360D01*
X59253Y195131D02*
X66625Y195131D01*
X66625Y193902D02*
X66625Y196360D01*
X66625Y202578D02*
X65397Y203806D01*
X66625Y202578D02*
X66625Y200120D01*
X65397Y198892D01*
X60482Y198892D01*
X59253Y200120D01*
X59253Y202578D01*
X60482Y203806D01*
X64168Y206376D02*
X66625Y208833D01*
X59253Y208833D01*
X59253Y206376D02*
X59253Y211291D01*
D12*
X184002Y219769D02*
X184934Y220701D01*
X186798Y220701D01*
X187730Y219769D01*
X187730Y216040D01*
X186798Y215108D01*
X184934Y215108D01*
X184002Y216040D01*
X182117Y215108D02*
X178388Y215108D01*
X182117Y215108D02*
X178388Y218837D01*
X178388Y219769D01*
X179321Y220701D01*
X181185Y220701D01*
X182117Y219769D01*
X184934Y170897D02*
X184002Y169965D01*
X184934Y170897D02*
X186798Y170897D01*
X187730Y169965D01*
X187730Y166236D01*
X186798Y165304D01*
X184934Y165304D01*
X184002Y166236D01*
X182117Y169033D02*
X180253Y170897D01*
X180253Y165304D01*
X182117Y165304D02*
X178388Y165304D01*
X29563Y167701D02*
X28631Y166769D01*
X29563Y167701D02*
X31427Y167701D01*
X32359Y166769D01*
X32359Y163040D01*
X31427Y162108D01*
X29563Y162108D01*
X28631Y163040D01*
X26746Y166769D02*
X25814Y167701D01*
X23950Y167701D01*
X23018Y166769D01*
X23018Y165837D01*
X23950Y164904D01*
X24882Y164904D01*
X23950Y164904D02*
X23018Y163972D01*
X23018Y163040D01*
X23950Y162108D01*
X25814Y162108D01*
X26746Y163040D01*
M02*
