M48
;GenerationSoftware,Autodesk,EAGLE,9.5.1*%
;CreationDate,2020-04-21T10:05:12Z*%
FMAT,2
ICI,OFF
METRIC,TZ,000.000
T4C0.500
T3C0.800
T2C1.000
T1C1.016
%
G90
M71
T1
X4150Y2500
X6690Y2500
X9230Y2500
X11770Y2500
X14310Y2500
X16850Y2500
T2
X15580Y12970
X15580Y10430
X13040Y12970
X13040Y10430
X10500Y12970
X10500Y10430
X7960Y12970
X7960Y10430
X5420Y12970
X5420Y10430
T3
X18000Y28500
X18000Y26500
T4
X12950Y25000
X18000Y31000
X2000Y17000
X4000Y17000
X7000Y17000
X2750Y31100
X17000Y22000
X7375Y31150
X8625Y31150
X9875Y31150
X11125Y31150
X12375Y31150
X13625Y31150
M30